<svg width="128" height="76" viewBox="0 0 128 76" fill="none" xmlns="http://www.w3.org/2000/svg">
<path d="M0.558887 59.1137L7.83657 17.6938H41.6194L39.9123 27.3974H19.6965L18.6183 33.3274H35.6894L33.9823 43.031H16.9112L15.833 49.4102H36.8575L35.1503 59.1137H0.558887Z" fill="#0D4F8C"/>
<path d="M59.2297 27.3974H61.8353C69.113 27.3974 71.5389 29.7335 70.0115 38.3589C68.6637 46.1756 64.6206 49.5 58.2414 49.5H55.3662L59.2297 27.3974ZM57.882 59.1137C71.1795 59.1137 80.8831 53.0939 83.6683 37.5502C86.0942 23.8934 78.9064 17.6938 65.5191 17.6938H47.2799L40.0022 59.1137H57.882Z" fill="#0D4F8C"/>
<path d="M102.536 27.3974H105.142C112.42 27.3974 114.845 29.7335 113.318 38.3589C111.97 46.1756 107.927 49.5 101.548 49.5H98.6728L102.536 27.3974ZM101.189 59.1137C114.486 59.1137 124.19 53.0939 126.975 37.5502C129.401 23.8934 122.213 17.6938 108.826 17.6938H90.6763L83.3986 59.1137H101.189Z" fill="#0D4F8C"/>
<path d="M55.7256 6.10335C80.6134 -0.365701 104.693 3.947 115.474 15.6272C117.9 15.9866 119.967 16.6156 121.854 17.514C110.533 5.47441 87.2622 -1.44388 61.4758 0.982018C44.9438 2.59928 30.2087 7.81046 19.6965 14.9983H33.8027C40.092 11.3145 47.5494 8.2597 55.7256 6.10335Z" fill="#0D4F8C"/>
<path d="M100.38 67.3797C105.232 65.2234 109.634 62.7975 113.498 60.0122C109.724 61.4498 105.411 62.0787 100.739 62.0787H96.0671C90.1371 65.3132 83.3986 68.0087 76.031 69.8955C52.2213 76.095 29.2203 72.4112 17.8096 61.899H13.5867C16.1025 63.8757 18.9776 65.7625 22.1223 67.3797L26.5248 69.4462C38.4746 74.3879 53.7487 76.5442 70.1909 75.0168C79.2656 74.1183 87.8011 72.2315 95.3483 69.4462L100.38 67.3797Z" fill="#0D4F8C"/>
</svg>
