<svg width="80" height="80" viewBox="0 0 80 80" fill="none" xmlns="http://www.w3.org/2000/svg">
<path d="M40 0.210938C18.0445 0.210938 0.210938 18.0445 0.210938 40C0.210938 61.9555 18.0445 79.7891 40 79.7891C61.9555 79.7891 79.7891 61.9555 79.7891 40C79.7891 18.0445 61.9555 0.210938 40 0.210938ZM40 77.2654C19.4746 77.2654 2.73456 60.5254 2.73456 40C2.73456 19.3904 19.4746 2.65044 40 2.65044C60.5254 2.65044 77.2654 19.3904 77.2654 39.9159C77.2654 60.5254 60.5254 77.2654 40 77.2654Z" fill="#0D4F8C"/>
<path d="M70.6206 45.8036L69.5271 45.7195C69.1906 45.7195 61.0309 45.1306 52.4506 46.5607C48.4969 47.2336 45.2162 48.5796 42.7767 49.8414C44.2067 47.0654 46.5621 43.3641 50.1793 39.831C54.7218 35.5409 59.5167 31.8396 62.545 29.5683C61.2832 33.4378 58.7596 39.5787 54.133 43.9529C55.563 43.7847 56.9931 43.6164 58.2549 43.5323C64.2275 36.2979 66.1622 26.8764 66.2463 26.4558L66.3305 26.2035L64.4798 24.7734L64.1433 25.0258C63.8069 25.2781 55.8154 30.5777 48.2445 37.8121C43.9544 41.934 41.3466 46.3083 39.8325 49.4208C39.7483 49.3367 39.7483 49.2525 39.6642 49.0843C38.3183 45.8877 36.3835 39.9993 36.3835 32.5125C36.3835 25.1099 38.3183 17.8755 39.6642 13.7536C41.0102 17.8755 42.9449 25.1099 42.9449 32.5125C42.9449 35.4567 42.6085 38.1486 42.1879 40.504C43.1973 39.2422 44.2909 37.9804 45.5527 36.8027C45.6368 35.4567 45.7209 34.0267 45.7209 32.5125C45.7209 20.6515 41.1784 9.79995 40.926 9.12698H38.3183C38.0659 9.79995 33.5234 20.6515 33.5234 32.5125C33.5234 41.8499 36.2994 48.8319 37.6453 51.692C34.7852 50.5143 30.1586 48.2431 25.7002 44.0371C21.1577 39.6628 18.5499 33.522 17.2881 29.6524C20.3165 31.8396 25.1114 35.5409 29.6539 39.9151C30.4951 40.7563 31.2522 41.5134 31.9251 42.3546C31.5886 40.8405 31.3363 39.2422 31.168 37.5598C23.7654 30.5777 16.0263 25.4464 15.6898 25.194L15.6057 24.8575L13.8392 26.2035L13.9233 26.4558C13.9233 27.0447 16.3628 38.5692 24.0178 45.9718C28.3079 50.0937 32.6822 52.4491 35.8788 53.795C33.3552 54.2998 29.8221 54.5521 25.8684 53.8792C20.9894 53.038 16.531 50.3461 13.8392 48.3272C16.1104 48.3272 19.307 48.4113 22.6719 48.7478C22.2513 48.3272 21.8307 47.9907 21.3259 47.5701C20.7371 46.9813 20.1482 46.3924 19.5594 45.7195C14.2598 45.383 10.222 45.6353 9.96964 45.6353H9.38079L8.87607 47.7384L9.12843 47.9907C9.46492 48.2431 16.531 55.141 25.3637 56.571C27.2144 56.9075 28.8968 56.9916 30.4951 56.9916C33.4393 56.9916 35.9629 56.571 37.8136 56.1504C37.1406 57.7487 35.9629 59.9359 33.8599 61.5341C31.3363 63.4689 28.0556 64.3943 25.9526 64.7307C26.6255 63.1324 27.8873 60.9453 29.5697 59.0946C28.4762 59.0105 27.3826 58.9264 26.2049 58.7582C23.6813 62.123 22.5036 65.8243 22.5036 65.9925V66.0767L24.0178 67.7591C24.859 67.6749 31.0839 67.2543 35.6264 63.7213C39.1595 60.9453 40.5896 57.1599 41.0943 55.2251C41.1784 55.2251 41.2625 55.2251 41.4308 55.2251C42.8608 55.141 46.0574 55.8139 48.581 57.8328C51.1046 59.7676 52.7029 62.796 53.6283 64.7307C51.5252 64.3943 48.2445 63.4689 45.7209 61.5341C44.6273 60.6929 43.7861 59.6835 43.1132 58.674C42.7767 59.5152 42.272 60.5247 41.6831 61.45C42.3561 62.2071 43.1132 62.9642 43.9544 63.7213C48.6651 67.4226 55.3948 67.7591 55.6472 67.7591H55.9836L57.1613 66.4131L56.9931 65.9084C56.909 65.6561 54.9742 59.2629 50.1793 55.5616C47.8239 53.7109 45.2162 52.8697 43.1973 52.5332C45.4686 51.2714 48.7493 49.7573 52.8712 49.0843C57.7502 48.2431 62.545 48.159 65.6575 48.159C62.9656 50.1779 58.5072 52.9538 53.6283 53.7109C53.2918 53.795 53.0394 53.795 52.7029 53.8792C53.6283 54.6363 54.4695 55.3933 55.1424 56.2345C63.4704 54.3839 70.0318 48.0748 70.2841 47.8225L70.873 47.2336L70.6206 45.8036Z" fill="#0D4F8C"/>
</svg>
