<svg width="55" height="50" viewBox="0 0 55 50" fill="none" xmlns="http://www.w3.org/2000/svg">
<g clip-path="url(#clip0_277_126)">
<path d="M40.4999 26.5908V39.8872C40.4999 40.804 39.7569 41.5449 38.8422 41.5449H2.48548C1.5687 41.5449 0.82782 40.8019 0.82782 39.8872V9.28779C0.82782 8.371 1.57077 7.63013 2.48548 7.63013H23.5425" stroke="black" stroke-width="1.65559" stroke-linecap="round" stroke-linejoin="round"/>
<path d="M0.82782 33.0352H40.4999" stroke="black" stroke-width="1.65559" stroke-linecap="round" stroke-linejoin="round"/>
<path d="M9.90045 48.4922H31.4273" stroke="black" stroke-width="1.65559" stroke-linecap="round" stroke-linejoin="round"/>
<path d="M16.5352 48.4922V41.5449" stroke="black" stroke-width="1.65559" stroke-linecap="round" stroke-linejoin="round"/>
<path d="M24.7945 48.4922V41.5449" stroke="black" stroke-width="1.65559" stroke-linecap="round" stroke-linejoin="round"/>
<path d="M5.44687 38.4283C6.19892 38.4283 6.80859 37.8186 6.80859 37.0666C6.80859 36.3145 6.19892 35.7048 5.44687 35.7048C4.69481 35.7048 4.08514 36.3145 4.08514 37.0666C4.08514 37.8186 4.69481 38.4283 5.44687 38.4283Z" stroke="black" stroke-width="1.65559" stroke-linecap="round" stroke-linejoin="round"/>
<path d="M10.3102 38.4283C11.0623 38.4283 11.6719 37.8186 11.6719 37.0666C11.6719 36.3145 11.0623 35.7048 10.3102 35.7048C9.55815 35.7048 8.94849 36.3145 8.94849 37.0666C8.94849 37.8186 9.55815 38.4283 10.3102 38.4283Z" stroke="black" stroke-width="1.65559" stroke-linecap="round" stroke-linejoin="round"/>
<path d="M15.1735 38.4283C15.9255 38.4283 16.5352 37.8186 16.5352 37.0666C16.5352 36.3145 15.9255 35.7048 15.1735 35.7048C14.4214 35.7048 13.8118 36.3145 13.8118 37.0666C13.8118 37.8186 14.4214 38.4283 15.1735 38.4283Z" stroke="black" stroke-width="1.65559" stroke-linecap="round" stroke-linejoin="round"/>
<path d="M8.08551 22.1165H12.7315L15.1735 16.3447L19.6788 27.7L22.4933 22.0234H27.0937" stroke="black" stroke-width="1.65559" stroke-linecap="round" stroke-linejoin="round"/>
<path d="M38.391 21.5393C44.1103 21.5393 48.7468 16.9029 48.7468 11.1836C48.7468 5.46429 44.1103 0.827881 38.391 0.827881C32.6717 0.827881 28.0353 5.46429 28.0353 11.1836C28.0353 16.9029 32.6717 21.5393 38.391 21.5393Z" stroke="black" stroke-width="1.65559" stroke-linecap="round" stroke-linejoin="round"/>
<path d="M44.0221 19.8754L50.0981 25.9514C50.5244 26.3777 51.0853 26.5929 51.6461 26.5908C52.2048 26.5908 52.7657 26.3798 53.1941 25.9514C54.0508 25.0946 54.0508 23.708 53.1941 22.8554L47.1118 16.7732" stroke="black" stroke-width="1.65559" stroke-linecap="round" stroke-linejoin="round"/>
</g>
<defs>
<clipPath id="clip0_277_126">
<rect width="54.6634" height="49.32" fill="white"/>
</clipPath>
</defs>
</svg>
