<?xml version="1.0" encoding="UTF-8"?><svg version="1.1" width="46" height="54" viewBox="0 0 46 54" fill="none" xmlns="http://www.w3.org/2000/svg">
<g clip-path="url(#clip0_277_44)">
<path d="M21.0861 43.9542H5.17835C2.69192 43.9542 0.67749 41.9397 0.67749 39.4533V9.8172C0.67749 7.33304 2.69192 5.3186 5.17609 5.3186H9.57984" stroke="black" stroke-width="1.355" stroke-linecap="round" stroke-linejoin="round"/>
<path d="M32.5923 5.3186H36.996C39.4779 5.3186 41.4946 7.33078 41.4946 9.8172V28.8979" stroke="black" stroke-width="1.355" stroke-linecap="round" stroke-linejoin="round"/>
<path d="M27.3823 5.3186H14.7898" stroke="black" stroke-width="1.355" stroke-linecap="round" stroke-linejoin="round"/>
<path d="M14.7877 3.28135C14.7877 1.84328 13.6219 0.67749 12.1838 0.67749C10.7457 0.67749 9.57996 1.84328 9.57996 3.28135V7.54283C9.57996 8.9809 10.7457 10.1467 12.1838 10.1467C13.6219 10.1467 14.7877 8.9809 14.7877 7.54283V3.28135Z" stroke="black" stroke-width="1.355" stroke-linecap="round" stroke-linejoin="round"/>
<path d="M32.5922 3.28135C32.5922 1.84328 31.4264 0.67749 29.9884 0.67749C28.5503 0.67749 27.3845 1.84328 27.3845 3.28135V7.54283C27.3845 8.9809 28.5503 10.1467 29.9884 10.1467C31.4264 10.1467 32.5922 8.9809 32.5922 7.54283V3.28135Z" stroke="black" stroke-width="1.355" stroke-linecap="round" stroke-linejoin="round"/>
<path d="M0.67749 15.8289H41.4946" stroke="black" stroke-width="1.355" stroke-linecap="round" stroke-linejoin="round"/>
<path d="M8.11869 23.0261H13.9181V19.8532H8.11869V23.0261Z" stroke="black" stroke-width="1.355" stroke-linecap="round" stroke-linejoin="round"/>
<path d="M18.1863 23.0261H23.9857V19.8532H18.1863V23.0261Z" stroke="black" stroke-width="1.355" stroke-linecap="round" stroke-linejoin="round"/>
<path d="M28.2541 23.0261H34.0535V19.8532H28.2541V23.0261Z" stroke="black" stroke-width="1.355" stroke-linecap="round" stroke-linejoin="round"/>
<path d="M8.11869 29.6091H13.9181V26.4362H8.11869V29.6091Z" stroke="black" stroke-width="1.355" stroke-linecap="round" stroke-linejoin="round"/>
<path d="M18.1863 29.6091H23.9857V26.4362H18.1863V29.6091Z" stroke="black" stroke-width="1.355" stroke-linecap="round" stroke-linejoin="round"/>
<path d="M34.0534 26.436H28.254V29.609" stroke="black" stroke-width="1.355" stroke-linecap="round" stroke-linejoin="round"/>
<path d="M8.11869 36.1899H13.9181V33.017H8.11869V36.1899Z" stroke="black" stroke-width="1.355" stroke-linecap="round" stroke-linejoin="round"/>
<path d="M23.9858 33.0168H18.1864V36.1898" stroke="black" stroke-width="1.355" stroke-linecap="round" stroke-linejoin="round"/>
<path d="M35.072 52.7729C40.7332 52.7729 45.3226 48.1835 45.3226 42.5223C45.3226 36.8611 40.7332 32.2717 35.072 32.2717C29.4108 32.2717 24.8214 36.8611 24.8214 42.5223C24.8214 48.1835 29.4108 52.7729 35.072 52.7729Z" stroke="black" stroke-width="1.355" stroke-linecap="round" stroke-linejoin="round"/>
<path d="M39.6157 42.5223H35.0719V35.8579" stroke="black" stroke-width="1.355" stroke-linecap="round" stroke-linejoin="round"/>
</g>
<defs>
<clipPath id="clip0_277_44">
<rect width="46" height="53.4502" fill="white"/>
</clipPath>
</defs>
</svg>
