<svg width="59" height="30" viewBox="0 0 59 30" fill="none" xmlns="http://www.w3.org/2000/svg">
<path d="M29.3448 0.269958C41.2356 0.269958 51.7616 5.47557 57.8171 13.5914C58.4747 14.4747 58.4747 15.6982 57.8171 16.584C51.7622 24.7002 41.2362 29.9251 29.3448 29.9251C17.4534 29.9251 6.92798 24.7002 0.872446 16.584C0.214881 15.6982 0.214881 14.4747 0.872446 13.5914C6.92737 5.47508 17.4534 0.269958 29.3448 0.269958ZM30.5704 5.92683C31.6829 7.23247 32.3617 8.92183 32.3617 10.7729C32.3617 14.8369 29.0926 18.1867 25.1211 18.1867C23.318 18.1867 21.6611 17.4868 20.3883 16.3525C20.9752 20.9041 24.7298 24.365 29.3449 24.365C34.3723 24.365 38.3956 20.2454 38.3956 15.0977C38.3956 10.3796 35.0063 6.53538 30.5704 5.92683ZM40.8846 7.22042C42.3671 9.47929 43.2227 12.1847 43.2227 15.0976C43.2227 18.0105 42.3671 20.7352 40.8846 22.9939C45.6409 21.2587 49.7042 18.4786 52.6879 15.0976C49.704 11.7141 45.6404 8.95562 40.8846 7.22042ZM17.8052 7.22042C13.0489 8.95562 8.98563 11.7141 6.00191 15.0976C8.98581 18.4787 13.0494 21.2589 17.8052 22.9939C16.3227 20.7351 15.4671 18.0104 15.4671 15.0976C15.4671 12.1848 16.3227 9.47929 17.8052 7.22042ZM25.1212 8.3016C23.7589 8.3016 22.7077 9.37796 22.7077 10.7729C22.7077 12.1678 23.7589 13.2442 25.1212 13.2442C26.4836 13.2442 27.5348 12.1678 27.5348 10.7729C27.5348 9.37796 26.4836 8.3016 25.1212 8.3016Z" fill="white"/>
</svg>
