<svg width="25" height="25" viewBox="0 0 25 25" fill="none" xmlns="http://www.w3.org/2000/svg">
<g clip-path="url(#clip0_1552_60)">
<path d="M12.5 0C5.6 0 0 5.6 0 12.5C0 19.4 5.6 25 12.5 25C19.4 25 25 19.4 25 12.5C25 5.6 19.4 0 12.5 0Z" fill="#1F7F35"/>
<path d="M18.29 9.03995L12.3 18.19C12.27 18.24 12.25 18.29 12.21 18.33C12.16 18.39 12.09 18.4199 12.02 18.4699C12 18.4799 11.99 18.49 11.97 18.5C11.87 18.56 11.77 18.5999 11.66 18.6299C11.62 18.6299 11.59 18.65 11.55 18.65C11.46 18.66 11.38 18.66 11.29 18.65C11.23 18.65 11.17 18.64 11.11 18.62C11.05 18.6 10.99 18.5799 10.93 18.5499C10.88 18.5299 10.83 18.5199 10.78 18.49C10.75 18.4699 10.73 18.43 10.7 18.41C10.69 18.4 10.67 18.4 10.66 18.3899L7.16999 15.17C6.72999 14.76 6.69999 14.07 7.10999 13.62C7.51999 13.18 8.20999 13.15 8.65999 13.56L11.18 15.89L16.45 7.82995C16.78 7.32995 17.46 7.17995 17.96 7.50995C18.47 7.83995 18.61 8.51995 18.28 9.01995L18.29 9.03995Z" fill="white"/>
</g>
<defs>
<clipPath id="clip0_1552_60">
<rect width="25" height="25" fill="white"/>
</clipPath>
</defs>
</svg>
