<svg width="24" height="32" viewBox="0 0 24 32" fill="none" xmlns="http://www.w3.org/2000/svg">
<path d="M22.4232 13.1181C22.3294 12.8299 22.1524 12.5758 21.9145 12.3879C21.6766 12.2001 21.3885 12.0869 21.0863 12.0625L15.5551 11.6162L13.4194 6.45155C13.3039 6.17013 13.1074 5.92941 12.8547 5.76C12.6021 5.59058 12.3047 5.50012 12.0005 5.50012C11.6963 5.50012 11.399 5.59058 11.1463 5.76C10.8937 5.92941 10.6971 6.17013 10.5816 6.45155L8.44788 11.6153L2.91381 12.0625C2.61117 12.0881 2.3228 12.2024 2.08485 12.3912C1.8469 12.5799 1.66994 12.8347 1.57615 13.1236C1.48236 13.4125 1.4759 13.7226 1.55759 14.0152C1.63928 14.3077 1.80548 14.5696 2.03538 14.7681L6.25413 18.4084L4.96881 23.8516C4.89693 24.1473 4.91453 24.4577 5.01938 24.7434C5.12423 25.0291 5.3116 25.2771 5.55771 25.4562C5.80382 25.6352 6.09757 25.737 6.40167 25.7488C6.70576 25.7605 7.00649 25.6817 7.26569 25.5222L12.0001 22.6084L16.7373 25.5222C16.9965 25.6798 17.2967 25.7571 17.5998 25.7445C17.903 25.7318 18.1956 25.6298 18.4409 25.4512C18.6861 25.2726 18.8731 25.0254 18.9782 24.7407C19.0832 24.4561 19.1017 24.1467 19.0313 23.8516L17.7413 18.4075L21.9601 14.7672C22.1918 14.569 22.3595 14.3065 22.442 14.013C22.5244 13.7194 22.5179 13.408 22.4232 13.1181ZM20.9851 13.6309L16.4194 17.5684C16.3153 17.6582 16.2379 17.7748 16.1955 17.9056C16.1532 18.0364 16.1476 18.1763 16.1794 18.31L17.5744 24.1975C17.578 24.2056 17.5784 24.2148 17.5754 24.2232C17.5725 24.2315 17.5664 24.2385 17.5585 24.2425C17.5416 24.2556 17.5369 24.2528 17.5229 24.2425L12.3929 21.0878C12.2747 21.0152 12.1388 20.9767 12.0001 20.9767C11.8614 20.9767 11.7254 21.0152 11.6073 21.0878L6.47725 24.2444C6.46319 24.2528 6.45944 24.2556 6.44163 24.2444C6.43371 24.2403 6.42765 24.2334 6.42468 24.225C6.42172 24.2167 6.42208 24.2075 6.42569 24.1994L7.82069 18.3119C7.85248 18.1781 7.84691 18.0382 7.80458 17.9075C7.76226 17.7767 7.68481 17.66 7.58069 17.5703L3.01506 13.6328C3.00381 13.6234 2.9935 13.615 3.00288 13.5859C3.01225 13.5569 3.01975 13.5606 3.03381 13.5587L9.02631 13.075C9.16376 13.0632 9.29529 13.0137 9.40644 12.932C9.51759 12.8503 9.60405 12.7395 9.65631 12.6119L11.9644 7.02343C11.9719 7.00749 11.9748 6.99999 11.9973 6.99999C12.0198 6.99999 12.0226 7.00749 12.0301 7.02343L14.3438 12.6119C14.3966 12.7396 14.4836 12.8502 14.5952 12.9316C14.7069 13.013 14.8389 13.062 14.9766 13.0731L20.9691 13.5569C20.9832 13.5569 20.9916 13.5569 21.0001 13.5841C21.0085 13.6112 21.0001 13.6216 20.9851 13.6309Z" fill="#165AC2"/>
</svg>
