<svg width="28" height="28" viewBox="0 0 28 28" fill="none" xmlns="http://www.w3.org/2000/svg">
<path d="M11.7733 1.76781L1.76777 11.7734C0.791456 12.7497 0.791456 14.3326 1.76777 15.3089L11.7733 25.3145C12.7496 26.2908 14.3326 26.2908 15.3089 25.3145L25.3144 15.3089C26.2907 14.3326 26.2907 12.7497 25.3144 11.7734L15.3089 1.76781C14.3326 0.791499 12.7496 0.791499 11.7733 1.76781Z" fill="#CD402D"/>
<path d="M13.5363 17.4611C14.4063 17.4611 15.1063 18.1611 15.1063 19.0311C15.1063 19.9011 14.4063 20.6011 13.5363 20.6011C12.6663 20.6011 11.9663 19.9011 11.9663 19.0311C11.9663 18.1611 12.6663 17.4611 13.5363 17.4611Z" fill="white"/>
<path d="M11.9663 14.3411V8.05108C11.9663 7.18108 12.6663 6.48108 13.5363 6.48108C14.4063 6.48108 15.1063 7.18108 15.1063 8.05108V14.3411C15.1063 15.2111 14.4063 15.9111 13.5363 15.9111C12.6663 15.9111 11.9663 15.2111 11.9663 14.3411Z" fill="white"/>
</svg>
