<svg width="24" height="32" viewBox="0 0 24 32" fill="none" xmlns="http://www.w3.org/2000/svg">
<path d="M12 6.25C10.0716 6.25 8.18657 6.82183 6.58319 7.89317C4.97982 8.96451 3.73013 10.4873 2.99218 12.2688C2.25422 14.0504 2.06114 16.0108 2.43735 17.9021C2.81355 19.7934 3.74215 21.5307 5.10571 22.8943C6.46928 24.2579 8.20656 25.1865 10.0979 25.5627C11.9892 25.9389 13.9496 25.7458 15.7312 25.0078C17.5127 24.2699 19.0355 23.0202 20.1068 21.4168C21.1782 19.8134 21.75 17.9284 21.75 16C21.7473 13.415 20.7192 10.9366 18.8913 9.10872C17.0634 7.28084 14.585 6.25273 12 6.25ZM12 24.25C10.3683 24.25 8.77326 23.7661 7.41655 22.8596C6.05984 21.9531 5.00242 20.6646 4.378 19.1571C3.75358 17.6496 3.5902 15.9908 3.90853 14.3905C4.22685 12.7902 5.01259 11.3202 6.16637 10.1664C7.32016 9.01259 8.79017 8.22685 10.3905 7.90852C11.9909 7.59019 13.6497 7.75357 15.1571 8.37799C16.6646 9.00242 17.9531 10.0598 18.8596 11.4165C19.7661 12.7733 20.25 14.3683 20.25 16C20.2475 18.1873 19.3775 20.2843 17.8309 21.8309C16.2843 23.3775 14.1873 24.2475 12 24.25ZM13.5 20.5C13.5 20.6989 13.421 20.8897 13.2803 21.0303C13.1397 21.171 12.9489 21.25 12.75 21.25C12.3522 21.25 11.9706 21.092 11.6893 20.8107C11.408 20.5294 11.25 20.1478 11.25 19.75V16C11.0511 16 10.8603 15.921 10.7197 15.7803C10.579 15.6397 10.5 15.4489 10.5 15.25C10.5 15.0511 10.579 14.8603 10.7197 14.7197C10.8603 14.579 11.0511 14.5 11.25 14.5C11.6478 14.5 12.0294 14.658 12.3107 14.9393C12.592 15.2206 12.75 15.6022 12.75 16V19.75C12.9489 19.75 13.1397 19.829 13.2803 19.9697C13.421 20.1103 13.5 20.3011 13.5 20.5ZM10.5 11.875C10.5 11.6525 10.566 11.435 10.6896 11.25C10.8132 11.065 10.9889 10.9208 11.1945 10.8356C11.4001 10.7505 11.6263 10.7282 11.8445 10.7716C12.0627 10.815 12.2632 10.9222 12.4205 11.0795C12.5778 11.2368 12.685 11.4373 12.7284 11.6555C12.7718 11.8738 12.7495 12.1 12.6644 12.3055C12.5792 12.5111 12.435 12.6868 12.25 12.8104C12.065 12.934 11.8475 13 11.625 13C11.3266 13 11.0405 12.8815 10.8295 12.6705C10.6185 12.4595 10.5 12.1734 10.5 11.875Z" fill="#5E5E6A"/>
</svg>
