<svg width="45" height="46" viewBox="0 0 45 46" fill="none" xmlns="http://www.w3.org/2000/svg">
<path d="M29.4813 20.075C29.4813 20.2872 29.397 20.4907 29.2469 20.6407C29.0969 20.7907 28.8934 20.875 28.6812 20.875H15.8813C15.6691 20.875 15.4656 20.7907 15.3156 20.6407C15.1655 20.4907 15.0813 20.2872 15.0813 20.075C15.0813 19.8629 15.1655 19.6594 15.3156 19.5093C15.4656 19.3593 15.6691 19.275 15.8813 19.275H28.6812C28.8934 19.275 29.0969 19.3593 29.2469 19.5093C29.397 19.6594 29.4813 19.8629 29.4813 20.075ZM28.6812 25.675H15.8813C15.6691 25.675 15.4656 25.7593 15.3156 25.9093C15.1655 26.0594 15.0813 26.2629 15.0813 26.475C15.0813 26.6872 15.1655 26.8907 15.3156 27.0407C15.4656 27.1908 15.6691 27.275 15.8813 27.275H28.6812C28.8934 27.275 29.0969 27.1908 29.2469 27.0407C29.397 26.8907 29.4813 26.6872 29.4813 26.475C29.4813 26.2629 29.397 26.0594 29.2469 25.9093C29.0969 25.7593 28.8934 25.675 28.6812 25.675ZM42.2812 23.275C42.2819 26.7569 41.3736 30.1785 39.6461 33.2016C37.9186 36.2247 35.4318 38.7444 32.4317 40.5115C29.4317 42.2786 26.0222 43.2319 22.5407 43.2771C19.0592 43.3222 15.6262 42.4577 12.5813 40.769L5.44325 43.149C5.02038 43.2901 4.56659 43.3105 4.13274 43.2081C3.69889 43.1058 3.30213 42.8846 2.98693 42.5694C2.67172 42.2542 2.45053 41.8574 2.34815 41.4235C2.24576 40.9897 2.26623 40.5359 2.40725 40.113L4.78725 32.975C3.30777 30.3049 2.45912 27.3316 2.30632 24.2828C2.15353 21.2341 2.70064 18.1908 3.90575 15.3861C5.11085 12.5815 6.94197 10.0899 9.25881 8.10228C11.5756 6.11467 14.3167 4.68377 17.272 3.91921C20.2273 3.15465 23.3184 3.07672 26.3085 3.6914C29.2985 4.30607 32.1082 5.59703 34.5223 7.46537C36.9363 9.33372 38.8907 11.7299 40.2356 14.4702C41.5805 17.2106 42.2802 20.2224 42.2812 23.275ZM40.6813 23.275C40.6804 20.4525 40.0302 17.668 38.781 15.137C37.5318 12.606 35.7171 10.3963 33.4772 8.67888C31.2373 6.96145 28.6324 5.78234 25.8639 5.23277C23.0954 4.6832 20.2376 4.7779 17.5116 5.50955C14.7856 6.24121 12.2644 7.59019 10.1431 9.45214C8.0219 11.3141 6.35744 13.6391 5.27854 16.2473C4.19965 18.8554 3.73524 21.6768 3.92125 24.4932C4.10726 27.3096 4.9387 30.0454 6.35125 32.489C6.40794 32.5872 6.44314 32.6962 6.45452 32.8089C6.4659 32.9217 6.4532 33.0356 6.41725 33.143L3.92525 40.619C3.87824 40.76 3.87142 40.9113 3.90555 41.0559C3.93968 41.2005 4.01341 41.3327 4.11848 41.4378C4.22354 41.5429 4.3558 41.6166 4.50041 41.6507C4.64503 41.6849 4.79629 41.678 4.93725 41.631L12.4133 39.139C12.495 39.1112 12.5809 39.097 12.6673 39.097C12.8077 39.0977 12.9455 39.135 13.0673 39.205C15.8644 40.8232 19.0384 41.6763 22.2699 41.6783C25.5014 41.6802 28.6765 40.8311 31.4756 39.2164C34.2748 37.6016 36.5993 35.2781 38.2153 32.4797C39.8313 29.6812 40.6818 26.5066 40.6813 23.275Z" fill="#444444"/>
</svg>
