<svg width="76" height="76" viewBox="0 0 76 76" fill="none" xmlns="http://www.w3.org/2000/svg">
<g clip-path="url(#clip0_677_6942)">
<path d="M69.095 0.559998H6.90501C6.07159 0.559997 5.24634 0.724316 4.47649 1.04356C3.70663 1.3628 3.00727 1.83069 2.41841 2.42047C1.82956 3.01026 1.36277 3.71035 1.04474 4.48071C0.726715 5.25107 0.563696 6.07658 0.56501 6.91V69.1C0.567655 70.7807 1.23647 72.3917 2.42487 73.5801C3.61328 74.7685 5.22435 75.4373 6.90501 75.44H69.095C70.7765 75.44 72.3891 74.772 73.5781 73.5831C74.767 72.3941 75.435 70.7815 75.435 69.1V6.91C75.4363 6.07658 75.2733 5.25107 74.9553 4.48071C74.6373 3.71035 74.1705 3.01026 73.5816 2.42047C72.9928 1.83069 72.2934 1.3628 71.5235 1.04356C70.7537 0.724316 69.9284 0.559997 69.095 0.559998V0.559998ZM38.005 71.23C31.4327 71.23 25.0081 69.2811 19.5434 65.6297C14.0788 61.9784 9.81959 56.7886 7.30449 50.7166C4.78939 44.6446 4.13133 37.9631 5.41352 31.5171C6.6957 25.0712 9.86055 19.1501 14.5079 14.5028C19.1552 9.85554 25.0762 6.69069 31.5222 5.4085C37.9681 4.12632 44.6496 4.78438 50.7216 7.29948C56.7936 9.81458 61.9834 14.0738 65.6347 19.5384C69.2861 25.003 71.235 31.4277 71.235 38C71.235 42.3638 70.3755 46.6849 68.7055 50.7166C67.0356 54.7482 64.5879 58.4115 61.5022 61.4972C58.4165 64.5828 54.7532 67.0305 50.7216 68.7005C46.6899 70.3705 42.3688 71.23 38.005 71.23Z" fill="#0D4F8C"/>
<path d="M34.935 14.36H31.435V17.56H34.935V14.36Z" fill="#0D4F8C"/>
<path d="M30.235 14.36H26.745V17.56H30.235V14.36Z" fill="#0D4F8C"/>
<path d="M34.935 18.76H31.435V21.97H34.935V18.76Z" fill="#0D4F8C"/>
<path d="M30.235 18.76H26.745V21.97H30.235V18.76Z" fill="#0D4F8C"/>
<path d="M20.825 27.49H17.325V30.69H20.825V27.49Z" fill="#0D4F8C"/>
<path d="M25.545 23.11H22.045V26.31H25.545V23.11Z" fill="#0D4F8C"/>
<path d="M20.825 23.11H17.325V26.31H20.825V23.11Z" fill="#0D4F8C"/>
<path d="M25.545 27.49H22.045V30.69H25.545V27.49Z" fill="#0D4F8C"/>
<path d="M25.545 31.86H22.045V35.06H25.545V31.86Z" fill="#0D4F8C"/>
<path d="M34.935 36.28H31.435V39.48H34.935V36.28Z" fill="#0D4F8C"/>
<path d="M39.635 36.28H36.135V39.48H39.635V36.28Z" fill="#0D4F8C"/>
<path d="M44.385 36.28H40.885V39.48H44.385V36.28Z" fill="#0D4F8C"/>
<path d="M30.235 36.28H26.745V39.48H30.235V36.28Z" fill="#0D4F8C"/>
<path d="M44.385 40.73H40.885V43.93H44.385V40.73Z" fill="#0D4F8C"/>
<path d="M49.145 40.73H45.645V43.93H49.145V40.73Z" fill="#0D4F8C"/>
<path d="M30.235 40.72H26.745V43.92H30.235V40.72Z" fill="#0D4F8C"/>
<path d="M44.385 45.12H40.885V48.32H44.385V45.12Z" fill="#0D4F8C"/>
<path d="M49.145 45.12H45.645V48.32H49.145V45.12Z" fill="#0D4F8C"/>
<path d="M53.895 45.12H50.395V48.32H53.895V45.12Z" fill="#0D4F8C"/>
<path d="M34.935 49.41H31.435V52.61H34.935V49.41Z" fill="#0D4F8C"/>
<path d="M39.635 49.41H36.135V52.61H39.635V49.41Z" fill="#0D4F8C"/>
<path d="M44.385 49.41H40.885V52.61H44.385V49.41Z" fill="#0D4F8C"/>
<path d="M49.145 49.41H45.645V52.61H49.145V49.41Z" fill="#0D4F8C"/>
<path d="M53.895 49.41H50.395V52.61H53.895V49.41Z" fill="#0D4F8C"/>
<path d="M58.645 49.41H55.145V52.61H58.645V49.41Z" fill="#0D4F8C"/>
<path d="M39.635 53.71H36.135V56.91H39.635V53.71Z" fill="#0D4F8C"/>
<path d="M44.385 53.71H40.885V56.91H44.385V53.71Z" fill="#0D4F8C"/>
<path d="M49.145 53.71H45.645V56.91H49.145V53.71Z" fill="#0D4F8C"/>
<path d="M39.085 41.22H32.055V47.68H39.085V41.22Z" fill="#0D4F8C"/>
<path d="M25.045 14.36H17.285V21.51H25.045V14.36Z" fill="#0D4F8C"/>
<path d="M58.645 54.33H50.965V61.32H58.645V54.33Z" fill="#0D4F8C"/>
<path d="M38.915 23.98H27.535V34.35H38.915V23.98Z" fill="#0D4F8C"/>
<path d="M38.985 15.17H37.105V16.76H38.985V15.17Z" fill="#0D4F8C"/>
<path d="M38.985 19.56H37.105V21.15H38.985V19.56Z" fill="#0D4F8C"/>
<path d="M57.855 41.53H55.975V43.12H57.855V41.53Z" fill="#0D4F8C"/>
<path d="M57.855 45.92H55.975V47.51H57.855V45.92Z" fill="#0D4F8C"/>
<path d="M43.685 32.71H41.795V34.3H43.685V32.71Z" fill="#0D4F8C"/>
<path d="M43.685 28.38H41.795V29.97H43.685V28.38Z" fill="#0D4F8C"/>
<path d="M48.465 32.71H46.585V34.3H48.465V32.71Z" fill="#0D4F8C"/>
<path d="M20.025 32.67H18.135V34.26H20.025V32.67Z" fill="#0D4F8C"/>
<path d="M24.715 37.09H22.825V38.68H24.715V37.09Z" fill="#0D4F8C"/>
<path d="M24.395 54.77H21.705V57.17H24.395V54.77Z" fill="#0D4F8C"/>
<path d="M24.715 41.52H22.825V43.12H24.715V41.52Z" fill="#0D4F8C"/>
<path d="M20.025 37.09H18.135V38.68H20.025V37.09Z" fill="#0D4F8C"/>
<path d="M20.025 41.52H18.135V43.12H20.025V41.52Z" fill="#0D4F8C"/>
<path d="M19.655 45.85H17.495V47.71H19.655V45.85Z" fill="#0D4F8C"/>
<path d="M18.625 55.15H15.935V57.55H18.625V55.15Z" fill="#0D4F8C"/>
<path d="M23.095 60.08H20.405V62.48H23.095V60.08Z" fill="#0D4F8C"/>
<path d="M28.745 59.37H26.055V61.77H28.745V59.37Z" fill="#0D4F8C"/>
<path d="M24.855 45.67H22.695V47.53H24.855V45.67Z" fill="#0D4F8C"/>
<path d="M29.535 54.46H27.115V56.59H29.535V54.46Z" fill="#0D4F8C"/>
<path d="M34.115 54.52H32.225V56.11H34.115V54.52Z" fill="#0D4F8C"/>
<path d="M29.415 45.8H27.525V47.39H29.415V45.8Z" fill="#0D4F8C"/>
<path d="M38.685 59.05H36.795V60.65H38.685V59.05Z" fill="#0D4F8C"/>
<path d="M43.535 58.91H41.645V60.5H43.535V58.91Z" fill="#0D4F8C"/>
<path d="M33.895 59.07H31.465V61.2H33.895V59.07Z" fill="#0D4F8C"/>
<path d="M53.165 37.09H51.275V38.68H53.165V37.09Z" fill="#0D4F8C"/>
<path d="M53.165 41.53H51.275V43.12H53.165V41.53Z" fill="#0D4F8C"/>
<path d="M57.855 37.09H55.975V38.68H57.855V37.09Z" fill="#0D4F8C"/>
<path d="M62.695 41.53H60.805V43.12H62.695V41.53Z" fill="#0D4F8C"/>
<path d="M62.695 45.92H60.805V47.51H62.695V45.92Z" fill="#0D4F8C"/>
<path d="M62.695 54.54H60.805V56.13H62.695V54.54Z" fill="#0D4F8C"/>
<path d="M62.695 50.21H60.805V51.81H62.695V50.21Z" fill="#0D4F8C"/>
<path d="M15.345 19.54H13.455V21.13H15.345V19.54Z" fill="#0D4F8C"/>
<path d="M14.965 41.39H12.815V43.25H14.965V41.39Z" fill="#0D4F8C"/>
<path d="M14.455 45.94H12.025V48.07H14.455V45.94Z" fill="#0D4F8C"/>
<path d="M15.345 23.92H13.455V25.51H15.345V23.92Z" fill="#0D4F8C"/>
<path d="M15.345 28.29H13.455V29.88H15.345V28.29Z" fill="#0D4F8C"/>
<path d="M15.345 32.67H13.455V34.26H15.345V32.67Z" fill="#0D4F8C"/>
<path d="M15.255 37.09H13.365V38.68H15.255V37.09Z" fill="#0D4F8C"/>
<path d="M48.465 37.09H46.585V38.68H48.465V37.09Z" fill="#0D4F8C"/>
<path d="M48.335 58.91H46.445V60.5H48.335V58.91Z" fill="#0D4F8C"/>
<path d="M53.945 23.51H51.525V25.64H53.945V23.51Z" fill="#0D4F8C"/>
<path d="M54.295 18.61H51.605V21.01H54.295V18.61Z" fill="#0D4F8C"/>
<path d="M53.305 32.58H51.145V34.44H53.305V32.58Z" fill="#0D4F8C"/>
<path d="M58.215 32.58H56.065V34.44H58.215V32.58Z" fill="#0D4F8C"/>
<path d="M58.635 27.87H56.215V30H58.635V27.87Z" fill="#0D4F8C"/>
<path d="M59.395 23.34H56.965V25.47H59.395V23.34Z" fill="#0D4F8C"/>
<path d="M60.065 18.23H57.375V20.63H60.065V18.23Z" fill="#0D4F8C"/>
<path d="M53.445 28.11H51.015V30.24H53.445V28.11Z" fill="#0D4F8C"/>
<path d="M48.735 23.7H46.315V25.83H48.735V23.7Z" fill="#0D4F8C"/>
<path d="M43.835 23.81H41.655V25.73H43.835V23.81Z" fill="#0D4F8C"/>
<path d="M49.095 18.97H46.405V21.37H49.095V18.97Z" fill="#0D4F8C"/>
<path d="M43.915 19.4H41.735V21.31H43.915V19.4Z" fill="#0D4F8C"/>
<path d="M48.615 28.25H46.455V30.11H48.615V28.25Z" fill="#0D4F8C"/>
<path d="M63.235 32.58H61.085V34.44H63.235V32.58Z" fill="#0D4F8C"/>
<path d="M63.975 27.7H61.545V29.83H63.975V27.7Z" fill="#0D4F8C"/>
<path d="M62.815 36.95H60.665V38.81H62.815V36.95Z" fill="#0D4F8C"/>
<path d="M65.055 23.02H62.635V25.15H65.055V23.02Z" fill="#0D4F8C"/>
<path d="M55.265 13.54H52.575V15.93H55.265V13.54Z" fill="#0D4F8C"/>
<path d="M49.625 14.08H46.935V16.48H49.625V14.08Z" fill="#0D4F8C"/>
<path d="M44.135 14.79H41.955V16.71H44.135V14.79Z" fill="#0D4F8C"/>
<path d="M24.435 50.12H22.015V52.25H24.435V50.12Z" fill="#0D4F8C"/>
<path d="M18.995 50.29H16.575V52.42H18.995V50.29Z" fill="#0D4F8C"/>
<path d="M29.385 50.19H27.495V51.79H29.385V50.19Z" fill="#0D4F8C"/>
<path d="M13.415 50.61H10.995V52.74H13.415V50.61Z" fill="#0D4F8C"/>
</g>
<defs>
<clipPath id="clip0_677_6942">
<rect width="74.87" height="74.88" fill="white" transform="translate(0.565002 0.559998)"/>
</clipPath>
</defs>
</svg>
