<svg width="52" height="51" viewBox="0 0 52 51" fill="none" xmlns="http://www.w3.org/2000/svg">
<path d="M20.8176 0.614777C19.9991 0.614777 19.3369 1.26798 19.3369 2.07521V10.8378C19.3369 11.6451 19.9992 12.2983 20.8176 12.2983C21.6361 12.2983 22.2983 11.6451 22.2983 10.8378V2.07521C22.2983 1.26796 21.6361 0.614777 20.8176 0.614777ZM7.72196 5.95449C7.34309 5.95449 6.97004 6.10282 6.68085 6.38806C6.10244 6.95854 6.10244 7.89413 6.68085 8.46465L11.9097 13.6218C12.4881 14.1923 13.4367 14.1923 14.0152 13.6218C14.5936 13.0513 14.5936 12.1157 14.0152 11.5452L8.78631 6.38806C8.49711 6.10282 8.10089 5.95449 7.72203 5.95449H7.72196ZM33.9125 5.95449C33.5337 5.95449 33.1374 6.10282 32.8482 6.38806L27.6194 11.5452C27.041 12.1157 27.041 13.0513 27.6194 13.6218C28.1978 14.1923 29.1464 14.1923 29.7248 13.6218L34.9537 8.46465C35.5321 7.89417 35.5321 6.95858 34.9537 6.38806C34.6645 6.10282 34.2914 5.95449 33.9126 5.95449H33.9125ZM15.7505 15.3334L29.1927 50.27L34.0745 39.6132L43.5142 48.9008L49.7843 42.7167L40.3675 33.4064L51.1725 28.5915L15.7505 15.3334ZM2.30838 18.8704C1.4899 18.8704 0.827637 19.5236 0.827637 20.3309C0.827637 21.1381 1.48992 21.7913 2.30838 21.7913H11.1928C12.0113 21.7913 12.6735 21.1381 12.6735 20.3309C12.6735 19.5236 12.0113 18.8704 11.1928 18.8704H2.30838ZM12.9741 26.6064C12.5953 26.6064 12.199 26.7547 11.9099 27.0399L6.681 32.1971C6.10258 32.7676 6.10258 33.7032 6.681 34.2737C7.25941 34.8442 8.20801 34.8442 8.78646 34.2737L14.0153 29.1165C14.5937 28.546 14.5937 27.6105 14.0153 27.0399C13.7261 26.7547 13.353 26.6064 12.9742 26.6064H12.9741Z" fill="white"/>
</svg>
