<svg width="25" height="18" viewBox="0 0 25 18" fill="none" xmlns="http://www.w3.org/2000/svg">
<path fill-rule="evenodd" clip-rule="evenodd" d="M5.76077 17.478C4.17384 17.478 2.73908 16.8693 1.67388 15.7606C0.586946 14.6302 0 13.065 0 11.3259C0 6.76076 1.97823 3.99993 3.60863 2.47822C5.6086 0.652163 7.78248 0 8.76072 0C8.97811 0 9.15202 0.152171 9.21723 0.369559C9.28245 0.586947 9.21723 0.804334 9.02159 0.934767C7.84769 1.7391 6.73902 2.84778 6.02164 4.02167C5.326 5.13035 5.26078 5.80425 5.326 5.95642H5.36947C7.26075 5.95642 8.84768 6.54337 9.93461 7.65204C10.4563 8.17377 10.8476 8.8042 11.1085 9.49984C11.3694 10.1737 11.4998 10.9346 11.4998 11.7172C11.4998 13.2606 10.9129 14.6954 9.82592 15.7823C8.73898 16.8693 7.3477 17.478 5.76077 17.478ZM23.3261 15.7823C22.2392 16.8693 20.8044 17.4562 19.261 17.4562L19.2175 17.478C17.6523 17.478 16.2175 16.8693 15.1523 15.7606C14.0654 14.6302 13.4785 13.0433 13.4785 11.3259C13.4785 6.76076 15.4349 3.99993 17.0871 2.47822C19.0871 0.652163 21.2609 0 22.2392 0C22.4566 0 22.6522 0.152171 22.7174 0.369559C22.7826 0.586947 22.7174 0.804334 22.5218 0.934767C21.3479 1.7391 20.2392 2.84778 19.5218 4.02167C18.8262 5.13035 18.761 5.80425 18.8262 5.95642H18.8697C20.7609 5.95642 22.3479 6.54337 23.4348 7.65204C23.9565 8.17377 24.3478 8.8042 24.6087 9.49984C24.8696 10.1737 25 10.9346 25 11.7172C25 13.2389 24.4131 14.6954 23.3261 15.7823Z" fill="#7FA1C2"/>
</svg>
